# xmcd
#
# Track frame offsets: 
#        150
#        34570
#        47502
#        63975
#        83127
#        107665
#        121997
#        147172
#        177897
#        192447
#        212212
#
# Disc length: 3083 seconds
#
# Revision: 1
# Processed by: cddbd v1.5.2PL0 Copyright (c) Steve Scherf et al.
# Submitted via: ExactAudioCopy v0.99pb5
#
DISCID=940c090b
DTITLE=Various Artist - Wake Up Dead Man: Black Convict Worksongs From Texas 
DTITLE=Prisons
DYEAR=1994
DGENRE=Blues
TTITLE0=Benny Richardson - Jody
TTITLE1=W. D. Alexander - Julie
TTITLE2=Joseph "Chinaman" Johnson - Long Hot Summer Days
TTITLE3=Johnny Jackson - I'm In The Bottom
TTITLE4=Ebbie Veasley, Marshall Phillips, and Theo Mitchell - Captain 
TTITLE4=Don't Feel Sorry For A Longtime Man
TTITLE5=Houston Page - Down The Line
TTITLE6=Willie "Cowboy" Craig - Early In The Morning
TTITLE7=Henry Scott - Hammer Ring
TTITLE8=Joseph "Chinaman" Johnson - Fallin' Down
TTITLE9=Ellis Unit - Log Loading Talk, Yells, Chants
TTITLE10=Benny Richarson - Grizzly Bear
EXTD=YEAR: 1994
EXTT0=
EXTT1=
EXTT2=
EXTT3=
EXTT4=
EXTT5=
EXTT6=
EXTT7=
EXTT8=
EXTT9=
EXTT10=
PLAYORDER=
